<svg xmlns="http://www.w3.org/2000/svg" width="259" height="277.451" viewBox="0 0 259 277.451">
  <g id="Group_205" data-name="Group 205" transform="translate(-2999 -624)">
    <path id="screen" d="M239,18.775H20a20.023,20.023,0,0,0-20,20v137.5a20.023,20.023,0,0,0,20,20H93.048l-5.467,28.951H71.333a7.5,7.5,0,0,0,0,15H187.666a7.5,7.5,0,1,0,0-15H171.42l-5.467-28.951H239a20.023,20.023,0,0,0,20-20V38.775a20.023,20.023,0,0,0-20-20Zm5,128.5H15V38.775a5.006,5.006,0,0,1,5-5H239a5.006,5.006,0,0,1,5,5Z" transform="translate(2999 661.225)" fill="#edcc1d"/>
    <g id="Group_204" data-name="Group 204" transform="translate(-226 -74)">
      <path id="Path_452" data-name="Path 452" d="M136.843,134.046,72.884,17.808a4.757,4.757,0,0,0-8.336,0L.59,134.046A4.757,4.757,0,0,0,4.757,141.1H132.675a4.757,4.757,0,0,0,4.168-7.051ZM12.805,131.582Z" transform="translate(3286 682.656)" fill="#edcc1d"/>
      <path id="Path_455" data-name="Path 455" d="M164.894,133.382v34.385a5.962,5.962,0,1,0,11.924,0V133.382a5.962,5.962,0,1,0-11.924,0Z" transform="translate(3184.106 613.233)"/>
      <path id="Path_456" data-name="Path 456" d="M170.338,265.364a6.279,6.279,0,1,0,6.279,6.279,6.279,6.279,0,0,0-6.279-6.279Z" transform="translate(3184.941 527.787)"/>
    </g>
    <path id="Path_458" data-name="Path 458" d="M171.365,265.364a7.306,7.306,0,1,0,7.306,7.306A7.306,7.306,0,0,0,171.365,265.364Z" transform="translate(2957.377 559.787)"/>
  </g>
</svg>
