<svg xmlns="http://www.w3.org/2000/svg" width="575.945" height="512.069" viewBox="0 0 575.945 512.069">
  <g id="Group_206" data-name="Group 206" transform="translate(-3790 -424)">
    <path id="leaf-solid" d="M546.2,9.7c-5.6-12.5-21.6-13-28.3-1.2C486.9,62.4,431.4,96,368,96H288C182,96,96,182,96,288c0,3.458,1.983,13.1,6.591,25.521s11.488,20.73,11.842,24.171c7.568-5.421,32.7-3.983,36.168-18.084.178-.724-.435-3.615-1.018-6.086-.259-1.1-.548-2.2-.548-2.2a41.432,41.432,0,0,1-8.25-10.361c-3.68-6.505-7.057-13.657-7.057-13.657s-.163-2.231.625-2.678C195.171,250.1,276.908,224,384,224a16,16,0,0,1,0,32c-96.577,0-172.442,22.992-230.109,54.459-.966.527-3.7,1.17-4.855,1.817-7.608,4.251-12.644,8.391-19.853,13.06C54.346,373.8,15.529,435.789,2.4,468a32.043,32.043,0,0,0,59.3,24.3c1.5-3.6,20.9-47.9,71.9-90.6,32.4,43.9,94,85.8,174.9,77.2C465.5,467.5,576,326.7,576,154.3c0-50.2-10.8-102.2-29.8-144.6Z" transform="translate(3789.945 424.024)" fill="#edcc1d"/>
    <path id="Path_460" data-name="Path 460" d="M7856.531-1765.016c5.531,3.656,28.828-4.047,4.8,3.063s-15.844,3-15.844,3" transform="translate(-3919 2500)" fill="#edcc1d" stroke="#edcc1d" stroke-width="1"/>
  </g>
</svg>
