<svg xmlns="http://www.w3.org/2000/svg" width="426.667" height="511.667" viewBox="0 0 426.667 511.667">
  <g id="Group_203" data-name="Group 203" transform="translate(-3380 -1230)">
    <path id="Path_446" data-name="Path 446" d="M224,192c119.616,0,213.333-42.176,213.333-96S343.616,0,224,0,10.667,42.176,10.667,96,104.384,192,224,192Z" transform="translate(3369.333 1230)" fill="#edcc1d"/>
    <path id="Path_447" data-name="Path 447" d="M214.229,405.141h.128c3.093,0,5.931-1.835,7.979-4.139a11.708,11.708,0,0,0,2.453-9.109A60.354,60.354,0,0,1,224,384a63.308,63.308,0,0,1,19.669-45.931,10.687,10.687,0,0,0,2.453-11.776c-1.685-4.053-6.037-5.952-10.069-6.592l-4.757.128c-2.411.086-4.843.171-7.3.171-80.768,0-154.411-15.851-197.013-42.411a10.676,10.676,0,0,0-16.32,9.067v44.011C10.667,369.259,103.893,403.349,214.229,405.141Z" transform="translate(3369.333 1230)" fill="#edcc1d"/>
    <path id="Path_448" data-name="Path 448" d="M420.288,162.645C377.835,194.368,304.448,213.333,224,213.333S70.165,194.368,27.733,162.645a10.644,10.644,0,0,0-17.024,8.533V224C10.667,260.053,96.4,298.667,224,298.667c73.323,0,141.163-13.653,181.44-36.5,1.216-.683,26.475-22.187,27.478-23.872,2.987-4.992,4.416-9.664,4.416-14.293V171.18a10.657,10.657,0,0,0-17.046-8.535Z" transform="translate(3369.333 1230)" fill="#edcc1d"/>
    <path id="Path_450" data-name="Path 450" d="M420.288,162.645C377.835,194.368,304.448,213.333,224,213.333S70.165,194.368,27.733,162.645a10.644,10.644,0,0,0-17.024,8.533V224C10.667,260.053,96.4,298.667,224,298.667c73.323,0,141.163-13.653,181.44-36.5,1.216-.683,26.475-22.187,27.478-23.872,2.987-4.992,4.416-9.664,4.416-14.293V171.18a10.657,10.657,0,0,0-17.046-8.535Z" transform="translate(3369.333 1336)" fill="#edcc1d"/>
    <path id="Path_449" data-name="Path 449" d="M369.664,465.963,322.987,442.6a10.918,10.918,0,0,0-9.131-.213,63.769,63.769,0,0,1-70.763-12.907,11.4,11.4,0,0,0-7.659-3.093L224,426.667c-80.768,0-154.411-15.851-197.013-42.411a10.676,10.676,0,0,0-16.32,9.067v26.752c0,50.112,91.712,87.872,213.333,87.872,54.037,0,105.365-7.957,144.555-22.443a10.675,10.675,0,0,0,1.109-19.541Z" transform="translate(3369.333 1230)" fill="#edcc1d"/>
    <path id="Path_451" data-name="Path 451" d="M420.288,162.645C377.835,194.368,304.448,213.333,224,213.333S70.165,194.368,27.733,162.645a10.644,10.644,0,0,0-17.024,8.533V224C10.667,260.053,96.4,298.667,224,298.667c73.323,0,141.163-13.653,181.44-36.5,1.216-.683,26.475-22.187,27.478-23.872,2.987-4.992,4.416-9.664,4.416-14.293V171.18a10.657,10.657,0,0,0-17.046-8.535Z" transform="translate(3369.333 1443)" fill="#edcc1d"/>
  </g>
</svg>
